<svg xmlns="http://www.w3.org/2000/svg" version="1.1" xmlns:xlink="http://www.w3.org/1999/xlink" xmlns:svgjs="http://svgjs.dev/svgjs" width="2000" height="2250" viewBox="0 0 2000 2250"><g transform="matrix(1,0,0,1,3.410605131648481e-13,0)"><svg viewBox="0 0 320 360" data-background-color="#ffffff" preserveAspectRatio="xMidYMid meet" height="2250" width="2000" xmlns="http://www.w3.org/2000/svg" xmlns:xlink="http://www.w3.org/1999/xlink"><g id="tight-bounds" transform="matrix(1,0,0,1,0,0)"><svg viewBox="0 0 320 360" height="360" width="320"><g><svg></svg></g><g><svg viewBox="0 0 320 360" height="360" width="320"><g><path xmlns="http://www.w3.org/2000/svg" d="M20.961 227.22l3.726 4.658-1.863-6.056c-0.466-2.795-3.726 0.466-1.863 1.398M25.153 224.425c1.397 2.329 2.795 4.658 2.795 6.987 0 3.261 2.795 4.658 5.123 5.589-3.261-3.726-5.124-13.974-7.918-12.576M204.017 26.929c7.918 0 15.371-0.932 23.756 0.931 20.495 5.124 37.729 15.371 49.374 29.811l32.606 52.169c1.397 13.042 4.192 27.482 3.726 43.319 3.261 0 2.795-4.658 6.521-5.59-3.726 9.316-5.59 20.961-6.521 34.469-2.329-7.453 0-18.632 0.466-24.687-3.261 5.124-5.124 1.397-5.124-0.932 0.466-3.726-1.397-3.261-2.795-4.658-5.124-4.658-8.384-9.782-12.11-17.7 2.329-6.055 2.795-14.905-4.658-19.563-2.329-1.397-5.124-3.726-6.521-7.453-1.863-5.124-5.124-11.179-4.193-19.097 0.466-2.329-6.987 5.124-11.179 1.863-18.166-12.576-36.332-27.016-58.224-39.127-11.645 0-20.029-4.192-24.221-9.316-3.726-4.658-0.932-10.713 4.658-11.179 3.261 0 6.987-0.932 9.782 0.932 0.466-1.863 2.329-4.192 4.657-4.192M157.904 16.215l0.932 0.466c4.658 0.932 6.987 7.453 12.11 5.124 0 3.261 0.466 6.521-0.466 8.85-1.397 3.726-5.59 3.726-8.85 3.726-31.208-1.863-49.374 11.179-68.471 22.358-5.124 3.261-10.713 5.59-14.906 9.782-20.029 18.632-41.921 35.866-47.045 70.335l-4.192 38.195c-0.466 4.192-5.124 8.384-4.192 13.508l3.26 22.824c-3.261-3.261-5.124 0.932-4.192 2.795 0.466 1.397 2.329 6.055 5.124 1.863 3.726 6.987 7.453 20.495 12.576 26.55 15.837 18.632 36.332 35.4 53.101 52.169 4.192-0.932 7.453-0.932 8.384-3.727 1.397 2.795-1.397 5.59-3.726 6.056 7.453 4.658 15.837 8.85 27.016 9.781 14.44 0.932 27.948 3.261 40.524 6.522 6.521-1.863 13.042-2.795 20.029-3.261 2.329 0 3.726-3.726 6.521-4.658l0.466-4.658c2.795 4.192 2.329-1.397 0.466-4.192 3.261 2.795 4.192 5.124 5.589 6.987 0-1.397 3.726-6.521 3.727-0.466l0.931-6.055c1.397-0.932 1.863 5.124 3.261 0.931 1.397-4.192 4.192-0.932 6.987-2.329-0.932 1.863-0.466 5.59 2.794 3.261l3.727-3.261c2.329 5.59 6.055 3.261 7.918 2.329 20.495-13.042 40.99-28.413 60.553-43.784l-0.466 6.055 2.329-7.453c2.329 2.329 4.192 0.466 5.124-0.931 2.795-4.658 6.521-9.316 12.577-13.508-7.453 20.029-16.303 35.866-27.482 48.908l-4.658 5.59c0 3.261-0.932 7.453-4.658 7.918-1.863 0.466-5.59-0.932-8.384 1.863-1.397 1.863 3.261 5.59-0.466 2.795-3.261-2.329-6.521 0-10.248 0.932-2.795 0.932 1.863 3.726 2.795 5.589 0.932 1.863 1.863 3.726 1.398 6.056l-5.124-5.59c-6.055 3.261-9.782 9.316-14.906 13.974-2.329 1.863-1.397 5.124-1.397 7.918-3.261 0-6.987-0.932-8.85 0.932-1.397 1.863-0.932 4.658-0.932 7.453-4.658-0.466-5.124-7.453-9.315-6.056-4.192 0.932-8.85 1.397-12.577 3.727 2.795 5.59-4.658 2.329-3.726 3.26-6.987-4.192-13.042-7.453-20.495-4.658-15.837-5.124-35.4-2.795-49.84-0.931 0-2.329 0.466-4.658-0.466-5.124-0.932 2.329-3.726 1.397-3.26 1.397-8.85-6.055-17.7-9.782-27.016-14.905-8.384 0.932-16.303-3.261-18.632-5.59-6.521-6.055-13.974-2.795-20.029-4.192-13.042-3.261-17.7-16.769-19.098-26.084-0.932-4.658-4.658-6.521-6.055-6.056-6.055-19.563-15.371-37.263-22.824-55.429-1.863-4.658-1.397-9.316-1.397-14.44 2.329 0.932 4.658 0.466 4.192-2.794-2.329-15.371-7.918-27.016-13.974-38.195 3.261-15.837 3.726-34.469 11.179-48.443 6.521-12.576 18.632-19.098 27.016-29.811 2.795-3.726 2.795-8.85 5.59-12.11 9.316-9.316 18.632-19.098 28.879-27.482 4.658-3.726 10.247 0 17.234-1.397 2.329-8.384 11.645-15.837 20.495-13.508 3.726 0.932 11.179-8.85 13.508-9.782 3.726-1.397 1.863 3.726 1.863 6.987 8.85-6.987 20.961-10.713 32.14-14.906" fill="#ee3e38" fill-rule="nonzero" stroke="none" stroke-width="1" stroke-linecap="butt" stroke-linejoin="miter" stroke-miterlimit="10" stroke-dasharray="" stroke-dashoffset="0" font-family="none" font-weight="none" font-size="none" text-anchor="none" style="mix-blend-mode: normal" data-fill-palette-color="tertiary"></path></g><g transform="matrix(1,0,0,1,64,111.96578540955365)"><svg viewBox="0 0 192 136.0684291808927" height="136.0684291808927" width="192"><g><svg viewBox="0 0 192 136.0684291808927" height="136.0684291808927" width="192"><g><svg viewBox="0 0 192 136.0684291808927" height="136.0684291808927" width="192"><g transform="matrix(1,0,0,1,0,82.24227412999217)"><svg viewBox="0 0 192 53.826155050900546" height="53.826155050900546" width="192"><g id="textblocktransform"><svg viewBox="0 0 192 53.826155050900546" height="53.826155050900546" width="192" id="textblock"><g><svg viewBox="0 0 192 53.826155050900546" height="53.826155050900546" width="192"><g transform="matrix(1,0,0,1,0,0)"><svg width="192" viewBox="1.350000023841858 -35.099998474121094 127.68999481201172 35.79999923706055" height="53.826155050900546" data-palette-color="#ee3e38"><path d="M29-26.8Q29.3-24.65 29.6-20.55L29.6-20.55 29.7-17.95Q29.7-10.7 31.6-5L31.6-5Q31.85-4.2 31.85-2.95L31.85-2.95Q31.85-2.25 31.75-1.05L31.75-1.05Q31.7-0.25 31.15 0.23 30.6 0.7 29.75 0.7L29.75 0.7Q29.65 0.7 29.2 0.6L29.2 0.6Q27.95 0.3 27.3-0.53 26.65-1.35 26.65-2.55L26.65-2.55Q26.65-2.95 26.7-3.15L26.7-3.15Q26.7-3.45 26.7-4L26.7-4Q26.7-4.9 26.6-5.65L26.6-5.65Q26.2-7.6 25.35-10.85L25.35-10.85Q25.05-12.2 24.1-12.2L24.1-12.2Q23.75-12.2 23.3-12.05L23.3-12.05Q21.75-11.6 20.58-11.2 19.4-10.8 18.5-10.55L18.5-10.55 16.1-9.85Q14.05-9.25 12.3-8.9L12.3-8.9Q10.45-8.5 9.6-6.85L9.6-6.85Q8.8-5.35 7.3-2.8L7.3-2.8Q6.35-1.1 4.8-1.1L4.8-1.1Q4.05-1.1 3.33-1.48 2.6-1.85 2.1-2.45L2.1-2.45Q1.35-3.3 1.35-4.1L1.35-4.1Q1.35-4.65 1.65-5.25L1.65-5.25 5.1-12.25Q10.8-23.85 11.9-26.15L11.9-26.15Q15.05-32.25 20.45-34.55L20.45-34.55Q21.6-35.1 22.8-35.1L22.8-35.1Q24.3-35.1 25.58-34.33 26.85-33.55 27.55-32.15L27.55-32.15Q28.55-30.1 29-26.8L29-26.8ZM12.85-14.15Q19.7-15.35 24.5-16.1L24.5-16.1Q24.4-20.9 24.23-23.68 24.05-26.45 23.5-29.25L23.5-29.25Q20.85-28.95 19.5-26.65L19.5-26.65Q17.15-22.95 15-19L15-19Q14.65-18.35 13.7-16.1L13.7-16.1 12.85-14.15ZM46.5-18.85Q46.5-18.55 46.4-18.07 46.3-17.6 46.35-17.45L46.35-17.45Q49.8-18.2 52.2-18.2L52.2-18.2Q55.95-18.2 57.85-14.6L57.85-14.6Q59.4-11.55 59.4-7.85L59.4-7.85Q59.4-6.9 59.2-5.1L59.2-5.1Q59.05-3.9 58.25-3.18 57.45-2.45 56.35-2.45L56.35-2.45Q55.2-2.45 54.72-2.88 54.25-3.3 54.17-3.85 54.1-4.4 54.1-5.6L54.1-5.6 54.05-6.65Q53.95-9.65 53.65-11.85L53.65-11.85Q53.5-12.75 52.97-13.13 52.45-13.5 51.6-13.5L51.6-13.5Q50.8-13.5 49.7-13.25L49.7-13.25Q48-12.8 47.42-12.55 46.85-12.3 45.75-11.5L45.75-11.5Q45.4-11.25 45.25-10.5 45.1-9.75 45.1-9.65L45.1-9.65Q44.45-6.45 43.7-2L43.7-2Q43.65-1.8 43.5-1.05 43.35-0.3 42.92 0.03 42.5 0.35 41.7 0.25L41.7 0.25Q38.55-0.15 38.5-2.4L38.5-2.4Q38.45-5.3 38.95-9.25L38.95-9.25Q39.3-12.1 39.6-13.85L39.6-13.85Q39.7-14.65 39.87-15.8 40.05-16.95 40.2-18.45L40.2-18.45Q40.35-19.6 40.5-20.15 40.65-20.7 41.2-21.08 41.75-21.45 42.9-21.45L42.9-21.45Q44.35-21.45 45.3-20.8 46.25-20.15 46.5-18.95L46.5-18.95 46.5-18.85ZM83.34-5.85Q83.45-5 84.09-3.65L84.09-3.65Q84.2-3.4 84.32-3.1 84.45-2.8 84.59-2.4L84.59-2.4Q82.9-1.45 81.9-1.45L81.9-1.45Q81.15-1.45 80.5-1.93 79.84-2.4 79.05-3.45L79.05-3.45Q78.45-4.15 78.05-4.15L78.05-4.15Q77.65-4.15 77.2-3.5L77.2-3.5Q76.2-2 74.72-1.25 73.25-0.5 71.59-0.5L71.59-0.5Q69.75-0.5 68.02-1.38 66.3-2.25 65.34-3.75L65.34-3.75Q64.34-5.3 64.34-8.35L64.34-8.35Q64.34-10.55 64.95-12.8 65.55-15.05 66.65-16.5L66.65-16.5Q67.84-18.15 69.5-19.13 71.15-20.1 73.15-20.1L73.15-20.1Q73.8-20.1 74.15-20.05L74.15-20.05Q74.3-20 74.59-20L74.59-20Q75.75-20 75.75-21.1L75.75-21.1 75.7-21.5Q75-27.25 74.45-29.95L74.45-29.95Q74.4-30.2 74.3-30.75 74.2-31.3 74.2-31.65L74.2-31.65Q74.2-32.35 74.5-32.88 74.8-33.4 75.55-33.75L75.55-33.75Q75.84-33.9 76.25-33.9L76.25-33.9Q77.3-33.9 78.45-33.23 79.59-32.55 79.8-31.7L79.8-31.7Q80.55-28.6 81.2-23.65L81.2-23.65 82.09-16.05Q82.9-9.25 83.34-5.85L83.34-5.85ZM70-12.1Q69.15-9.65 69.15-7.6L69.15-7.6Q69.15-4.75 71.15-3.4L71.15-3.4Q71.95-3.85 72.42-4.42 72.9-5 73.55-6.1L73.55-6.1 74.09-7.05Q75.25-8.7 75.62-10.75 76-12.8 76.09-15.95L76.09-15.95Q76.15-16.4 75.92-16.98 75.7-17.55 75.45-17.6L75.45-17.6Q75.05-17.7 74.09-17.38 73.15-17.05 72.9-16.7L72.9-16.7Q71.75-15.35 71.07-14.35 70.4-13.35 70-12.1L70-12.1ZM96.19-21.2Q96.34-20.7 96.24-19.65L96.24-19.65 95.64-13.75Q95.89-13.95 96.39-15.18 96.89-16.4 97.34-17.18 97.79-17.95 98.04-18.2L98.04-18.2Q100.39-20.45 103.34-20.9 106.29-21.35 109.84-21.3L109.84-21.3Q110.19-21.3 110.62-21.03 111.04-20.75 111.04-20.58 111.04-20.4 110.74-20.03 110.44-19.65 110.19-19.55L110.19-19.55Q107.19-18.55 104.92-17.25 102.64-15.95 100.99-13.85L100.99-13.85Q97.09-8.9 96.49-3.65L96.49-3.65Q96.34-2.25 95.64-1.78 94.94-1.3 93.69-1.3L93.69-1.3Q92.29-1.3 91.19-2.5 90.09-3.7 90.09-5.15L90.09-5.15Q90.14-10.45 90.14-21.05L90.14-21.05Q90.14-22.5 90.79-23.08 91.44-23.65 93.14-23.65L93.14-23.65Q94.39-23.65 95.27-22.95 96.14-22.25 96.19-21.2L96.19-21.2ZM123.04-3.35Q121.49-2.4 119.49-2.4L119.49-2.4Q117.29-2.4 115.27-3.53 113.24-4.65 112.04-6.75 110.84-8.85 111.04-11.55L111.04-11.55 111.29-12.75Q111.59-14.55 111.79-15.4L111.79-15.4Q112.24-17.25 113.59-18 114.94-18.75 117.19-19.2L117.19-19.2Q118.64-19.5 120.04-19.5L120.04-19.5Q124.44-19.5 127.44-16.55L127.44-16.55Q129.04-14.95 129.04-12.65L129.04-12.65Q129.04-10.4 127.39-7.8L127.39-7.8Q125.49-4.85 123.04-3.35L123.04-3.35ZM118.84-16.95Q118.04-15 117.14-12.1L117.14-12.1 116.64-10.6 116.99-10.45Q116.99-10.1 117.02-9.38 117.04-8.65 117.19-8.15L117.19-8.15Q117.74-6.6 118.44-6.25L118.44-6.25Q118.74-6.1 119.31-6.4 119.89-6.7 120.34-7.1L120.34-7.1Q121.04-7.7 122.59-9.6L122.59-9.6Q123.74-10.9 123.74-12.7L123.74-12.7Q123.74-14.25 122.87-15.5 121.99-16.75 120.44-17.2L120.44-17.2Q120.29-17.25 119.89-17.25L119.89-17.25Q118.94-17.25 118.84-16.95L118.84-16.95Z" opacity="1" transform="matrix(1,0,0,1,0,0)" fill="#ee3e38" class="wordmark-text-0" data-fill-palette-color="primary" id="text-0"></path></svg></g></svg></g></svg></g></svg></g><g transform="matrix(1,0,0,1,53.32240238107058,0)"><svg viewBox="0 0 85.35519523785884 74.38774628034456" height="74.38774628034456" width="85.35519523785884"><g><svg xmlns="http://www.w3.org/2000/svg" xmlns:xlink="http://www.w3.org/1999/xlink" version="1.0" x="0" y="0" viewBox="1.1180000305175781 4.118575572967529 47.92100143432617 41.76354217529297" enable-background="new 0 0 50 50" xml:space="preserve" height="74.38774628034456" width="85.35519523785884" class="icon-icon-0" data-fill-palette-color="accent" id="icon-0"><g fill="#8d021f" data-fill-palette-color="accent"><g fill="#8d021f" data-fill-palette-color="accent"><polygon fill="#8d021f" points="10.821,24.951 21,32.193 21,39.035 1.118,24.891 21,11.118 21,17.9   " data-fill-palette-color="accent"></polygon></g><g fill="#8d021f" data-fill-palette-color="accent"><polygon fill="#8d021f" points="49.039,25.277 35.815,16.063 34.219,21.712 39.475,25.338 31.411,30.97 29,38.79 29,39.424   " data-fill-palette-color="accent"></polygon></g><rect x="25.577" y="3.983" transform="matrix(0.9606 0.278 -0.278 0.9606 8.0575 -6.8179)" fill="#8d021f" width="4.981" height="42.035" data-fill-palette-color="accent"></rect></g></svg></g></svg></g><g></g></svg></g></svg></g></svg></g></svg></g><defs></defs></svg><rect width="320" height="360" fill="none" stroke="none" visibility="hidden"></rect></g></svg></g></svg>